#!OML:ASF H:\charlestonDancing\Project 1\Capture day 1\Session 1\femaleDancer.ASF
:FULLY-SPECIFIED
:DEGREES
374
root -14.0392 18.2286 2.12329 -145.728 -139.106 139.689
lowerback 19.7786 1.70027 4.65789
upperback 2.42343 3.47622 4.11079
thorax -8.42521 1.51882 0.905087
lowerneck 4.13863 -14.4668 -6.80412
upperneck 8.24875 -21.2633 16.9612
head 4.36988 -10.5154 5.29658
rclavicle 8.5875e-014 2.8625e-014
rhumerus -216.827 188.679 -232.168
rradius 49.3437
rwrist 49.0971
rhand -13.4349 -41.4912
rfingers 7.12502
rthumb 192.674 108.913
lclavicle 8.5875e-014 2.8625e-014
lhumerus -58.1812 14.0386 29.5164
lradius 51.1828
lwrist -5.62573
lhand -25.3472 4.88354
lfingers 7.12502
lthumb 1.17627 34.86
rfemur -38.6934 -12.2965 -5.94893
rtibia 73.3536
rfoot 22.6036 -27.3042
rtoes 30.3573
lfemur -20.5754 -13.6499 6.60722
ltibia 40.0887
lfoot -14.1468 -4.88359
ltoes -11.0773
375
root -14.0505 18.1935 2.15011 -144.351 -136.238 138.353
lowerback 19.5869 2.42092 4.37911
upperback 2.27683 4.31965 3.59701
thorax -8.4482 1.92496 0.288233
lowerneck 3.9348 -14.33 -6.48261
upperneck 8.41078 -21.0453 16.5697
head 4.34858 -10.3907 5.14024
rclavicle 7.95139e-015 0
rhumerus -216.165 188.855 -232.736
rradius 49.4584
rwrist 48.468
rhand -12.7817 -41.7382
rfingers 7.12502
rthumb 193.304 108.706
lclavicle 7.95139e-015 0
lhumerus -60.4059 14.8192 27.6981
lradius 51.0309
lwrist -3.80082
lhand -25.5072 5.95326
lfingers 7.12502
lthumb 1.0217 35.9306
rfemur -41.4151 -15.898 -3.13215
rtibia 76.9097
rfoot 24.4642 -25.6151
rtoes 29.1993
lfemur -19.3549 -12.9745 5.34681
ltibia 40.3955
lfoot -15.2894 -2.80734
ltoes -12.0426
376
root -14.0514 18.1665 2.17608 -142.758 -133.503 136.833
lowerback 19.4106 3.06557 4.05922
upperback 2.16451 5.07007 3.28692
thorax -8.45775 2.29058 -0.055629
lowerneck 3.60983 -14.1309 -6.36811
upperneck 8.48356 -20.7345 16.2298
head 4.33724 -10.2207 5.02589
rclavicle -6.99722e-014 -3.81667e-014
rhumerus -215.408 188.849 -233.222
rradius 49.7814
rwrist 47.0578
rhand -12.8846 -42.0285
rfingers 7.12502
rthumb 193.204 108.41
lclavicle -6.99722e-014 -3.81667e-014
lhumerus -62.8728 15.9295 25.8916
lradius 51.0159
lwrist -2.37627
lhand -25.4681 6.23477
lfingers 7.12502
lthumb 1.0595 36.2119
rfemur -44.4567 -19.2469 -0.0800688
rtibia 80.7347
rfoot 28.2197 -22.7907
rtoes 25.1194
lfemur -18.332 -12.1458 4.19722
ltibia 40.7054
lfoot -16.2493 -1.03069
ltoes -12.1683
377
root -14.0615 18.1373 2.18537 -140.567 -131.018 134.42
lowerback 19.4112 3.70629 4.09558
upperback 2.06577 5.90922 3.11201
thorax -8.52398 2.68427 -0.481986
lowerneck 3.35379 -13.8982 -6.25214
upperneck 8.40236 -20.3949 16.1631
head 4.29475 -10.0433 5.00334
rclavicle -3.18055e-014 -9.54166e-015
rhumerus -214.927 188.94 -233.832
rradius 50.4267
rwrist 45.0515
rhand -13.0879 -42.166
rfingers 7.12502
rthumb 193.008 108.26
lclavicle -3.18055e-014 -9.54166e-015
lhumerus -65.1566 16.982 23.9637
lradius 51.1293
lwrist -1.12274
lhand -25.1271 6.2978
lfingers 7.12502
lthumb 1.38879 36.273
rfemur -47.3599 -21.9095 3.72941
rtibia 84.5448
rfoot 29.5502 -20.8939
rtoes 23.531
lfemur -17.2694 -10.9312 3.70416
ltibia 41.0265
lfoot -17.1561 0.223367
ltoes -12.3955
378
root -14.074 18.1083 2.17428 -137.317 -128.828 130.569
lowerback 19.6969 4.41074 4.63282
upperback 1.9668 6.96824 3.122
thorax -8.69531 3.15947 -1.0631
lowerneck 3.13347 -13.6815 -6.03875
upperneck 8.26202 -20.0866 16.2172
head 4.23609 -9.88214 5.00456
rclavicle -4.13472e-014 -7.95139e-014
rhumerus -214.798 189.127 -234.567
rradius 51.3618
rwrist 43.1856
rhand -13.1633 -42.47
rfingers 7.12502
rthumb 192.936 107.951
lclavicle -4.13472e-014 -7.95139e-014
lhumerus -67.1579 17.9256 21.9943
lradius 51.447
lwrist 0.293489
lhand -25.0662 6.44333
lfingers 7.12502
lthumb 1.44763 36.4182
rfemur -50.1675 -23.5062 8.50222
rtibia 88.2371
rfoot 29.4581 -22.039
rtoes 27.4289
lfemur -16.0683 -9.02556 4.11051
ltibia 41.3538
lfoot -17.8573 0.971376
ltoes -13.0817
379
root -14.0685 18.0847 2.16934 -133.806 -126.803 126.705
lowerback 20.0448 5.03603 5.22208
upperback 1.835 7.94367 3.10992
thorax -8.90922 3.58701 -1.68441
lowerneck 2.78799 -13.5069 -5.77146
upperneck 8.1226 -19.8155 16.1438
head 4.18532 -9.73301 4.9473
rclavicle 1.00983e-013 -5.08889e-014
rhumerus -214.933 189.354 -235.247
rradius 52.4029
rwrist 41.981
rhand -13.9692 -42.8019
rfingers 7.12502
rthumb 192.159 107.571
lclavicle 1.00983e-013 -5.08889e-014
lhumerus -68.9899 18.9536 20.1829
lradius 51.9973
lwrist 1.68214
lhand -25.2865 6.61023
lfingers 7.12502
lthumb 1.23485 36.5864
rfemur -53.0408 -24.9489 13.1141
rtibia 91.8266
rfoot 32.5369 -18.4321
rtoes 22.4661
lfemur -15.117 -7.09249 4.35642
ltibia 41.6006
lfoot -18.3831 1.53716
ltoes -12.7028
380
root -14.051 18.0573 2.18148 -131.189 -124.447 124.558
lowerback 19.9899 5.50901 5.01161
upperback 1.69005 8.4984 2.79164
thorax -8.98911 3.85011 -2.05485
lowerneck 2.38916 -13.3188 -5.58455
upperneck 7.85135 -19.5024 16.0663
head 4.10719 -9.56725 4.90226
rclavicle -1.98785e-014 -3.81667e-014
rhumerus -215.124 189.455 -235.89
rradius 53.5466
rwrist 40.9421
rhand -15.0804 -43.2632
rfingers 7.12502
rthumb 191.087 107.05
lclavicle -1.98785e-014 -3.81667e-014
lhumerus -70.651 20.0984 18.6022
lradius 52.6807
lwrist 2.72372
lhand -25.6149 6.6583
lfingers 7.12502
lthumb 0.917671 36.6361
rfemur -56.2103 -27.1333 16.423
rtibia 95.414
rfoot 34.0681 -12.2597
rtoes 13.5959
lfemur -14.8347 -5.66729 3.21398
ltibia 41.7659
lfoot -18.883 2.42567
ltoes -12.5061
381
root -14.0133 18.0149 2.25327 -132.619 -120.459 127.966
lowerback 19.2025 5.66682 2.67822
upperback 1.55297 8.05412 1.38768
thorax -8.83997 3.72177 -2.09996
lowerneck 1.88126 -13.0813 -5.46396
upperneck 7.52969 -19.1201 16.0431
head 4.03691 -9.36465 4.88071
rclavicle -6.52014e-014 -3.18055e-015
rhumerus -215.247 189.416 -236.645
rradius 54.8126
rwrist 39.9687
rhand -15.9562 -44.0978
rfingers 7.12502
rthumb 190.242 106.172
lclavicle -6.52014e-014 -3.18055e-015
lhumerus -72.1116 21.2305 17.1785
lradius 53.4995
lwrist 3.47075
lhand -25.976 6.66725
lfingers 7.12502
lthumb 0.568879 36.6462
rfemur -60.3492 -31.3249 15.7135
rtibia 98.9497
rfoot 35.4818 -9.04975
rtoes 8.26737
lfemur -15.5414 -5.55841 -1.96001
ltibia 41.7336
lfoot -19.4644 4.18178
ltoes -13.028
382
root -13.9931 17.9751 2.29122 -131.711 -117.23 127.635
lowerback 19.1461 5.98126 1.72262
upperback 1.66278 8.17762 0.615618
thorax -8.6974 3.8053 -2.41867
lowerneck 1.2441 -12.7644 -5.1967
upperneck 7.19595 -18.6202 15.9611
head 3.95332 -9.09677 4.82293
rclavicle 1.08139e-013 4.77083e-014
rhumerus -215.347 189.336 -237.511
rradius 56.042
rwrist 39.7004
rhand -17.0609 -44.8784
rfingers 7.12502
rthumb 189.177 105.341
lclavicle 1.08139e-013 4.77083e-014
lhumerus -73.2532 22.2527 15.995
lradius 54.3734
lwrist 3.98067
lhand -26.349 6.77123
lfingers 7.12502
lthumb 0.208672 36.7509
rfemur -63.6101 -33.3317 17.2031
rtibia 101.998
rfoot 37.3227 -2.67557
rtoes -4.21204
lfemur -15.1336 -4.39591 -4.78072
ltibia 41.5628
lfoot -19.9499 5.20793
ltoes -12.5432
383
root -13.9767 17.9661 2.30844 -127.427 -114.981 123.195
lowerback 19.3921 6.37417 2.15433
upperback 1.86092 8.74675 0.411931
thorax -8.49127 4.05858 -3.02355
lowerneck 0.610949 -12.4186 -4.76025
upperneck 6.78927 -18.0584 15.7471
head 3.81547 -8.8017 4.71079
rclavicle 3.65764e-014 7.95139e-014
rhumerus -215.348 189.157 -238.378
rradius 57.1129
rwrist 40.0186
rhand -18.2996 -45.4481
rfingers 7.12502
rthumb 187.981 104.723
lclavicle 3.65764e-014 7.95139e-014
lhumerus -73.9051 23.1442 15.2115
lradius 55.1364
lwrist 4.32786
lhand -26.837 6.99487
lfingers 7.12502
lthumb -0.262654 36.9744
rfemur -66.2987 -33.2458 20.5764
rtibia 104.286
rfoot 37.6062 3.58767
rtoes -17.8569
lfemur -14.2576 -2.41385 -5.38342
ltibia 41.2853
lfoot -20.3914 5.63608
ltoes -11.0468
384
root -13.9438 17.9578 2.34712 -123.469 -112.447 119.482
lowerback 19.5575 6.67793 2.31261
upperback 2.05072 9.11357 -0.0612726
thorax -8.24587 4.2249 -3.7045
lowerneck -0.0877662 -12.1192 -4.25707
upperneck 6.35282 -17.5382 15.3395
head 3.66481 -8.52838 4.52526
rclavicle 1.11319e-014 -1.27222e-014
rhumerus -215.21 188.894 -239.165
rradius 58.1182
rwrist 40.3619
rhand -19.4475 -46.0775
rfingers 7.12502
rthumb 186.873 104.054
lclavicle 1.11319e-014 -1.27222e-014
lhumerus -74.0211 23.9779 14.8928
lradius 55.7897
lwrist 4.65923
lhand -27.2452 7.27089
lfingers 7.12502
lthumb -0.656892 37.2496
rfemur -69.156 -32.9661 22.7114
rtibia 105.787
rfoot 38.8457 8.61981
rtoes -17.8172
lfemur -13.7782 -0.885771 -6.89626
ltibia 40.9223
lfoot -20.7402 6.55173
ltoes -11.1183
